<svg xmlns="http://www.w3.org/2000/svg" xml:space="preserve" viewBox="0 0 128 128">
  <circle cx="64" cy="64" r="64" fill="#263740"/>
  <path fill="#e6e6e6" d="M3.902 86.052C12.889 110.533 36.404 128 64 128c.688 0 1.368-.03 2.051-.052C57.064 103.467 33.549 86 5.953 86c-.687 0-1.368.03-2.051.052z"/>
  <path fill="#cc584c" d="M66.229 40.395c-1.971-2.472-7.503-1.295-13.833 2.94-4.399 3.104-11.73 16.229-12.525 19.29s4.902 2.307 6.121 1.59c1.929-1.133 7.375-9.52 7.919-10.357.545-.838 4.149-.883 6.917-1.471.793-3.061 4.313-10.315 5.401-11.992zm21.805 14.162c3.062.794 4.237 6.327 2.94 13.832-1.048 5.282-10.056 17.318-12.526 19.289-2.474 1.974-4.101-3.539-3.943-4.942.251-2.225 5.697-10.609 6.242-11.448.545-.838-.882-4.149-1.472-6.916 2.474-1.975 7.67-8.139 8.759-9.815z"/>
  <path fill="#e6e6e6" d="M107.633.51c-2.518-1.634-18.865-.326-31.395 18.963-10.348 15.936-16.251 32.37-16.502 34.592 2.517 1.636 9.226 5.991 9.226 5.991s6.71 4.356 9.226 5.99c1.93-1.132 15.086-14.05 24.892-29.146 12.524-19.291 7.066-34.755 4.553-36.39z"/>
  <circle cx="91.292" cy="25.67" r="10" fill="#263740"/>
  <path fill="#c2e2f2" d="M88.023 30.702c-2.773-1.804-3.565-5.525-1.765-8.3 1.804-2.775 5.524-3.566 8.302-1.766 2.772 1.803 3.563 5.524 1.764 8.301-1.803 2.776-5.523 3.567-8.301 1.765z"/>
  <path fill="#cc584c" d="M101.096 10.574c3.08 2 6.449 3.199 9.863 3.658.352-7.678-1.936-12.818-3.326-13.725-1.395-.902-7.021-.9-13.892 2.542 1.808 2.933 4.275 5.524 7.355 7.525zM76.598 72.167c-.6.923-1.845 1.188-2.768.589l-18.45-11.98c-.923-.601-1.188-1.846-.589-2.769l2.18-3.354c.6-.922 1.844-1.188 2.768-.588l18.449 11.982c.924.6 1.188 1.844.59 2.769l-2.18 3.351z"/>
  <path fill="#bf5347" d="M62.59 60.688c-.6.925-1.336 2.097-2.104 3.402l9.079 5.896c.881-1.233 1.651-2.385 2.252-3.309s1.336-2.096 2.104-3.4l-9.077-5.896c-.883 1.232-1.655 2.382-2.254 3.307z"/>
  <path fill="#ffd464" d="M57.057 61.863C50.44 72.051 42.108 92.694 46.508 95.551c4.398 2.857 19.866-13.148 26.484-23.341L57.057 61.863z"/>
  <path fill="#f2b255" d="M58.734 62.952c-6.617 10.188-9.165 20.28-5.692 22.535 3.474 2.256 11.655-4.178 18.272-14.365l-12.58-8.17z"/>
  <ellipse cx="67.213" cy="63.687" fill="#cc584c" rx="3.5" ry="16.999" transform="rotate(-147.003 67.21328395 63.68594418)"/>
  <ellipse cx="22.933" cy="96.481" fill="#ccc" rx="6" ry="4.5" transform="rotate(-157.88 22.9348687 96.48215424)"/>
  <path fill="#b3b3b3" d="M23.26 100.669c-3.07-1.247-4.801-4.125-3.865-6.428.535-1.318 1.84-2.144 3.424-2.39-2.438-.35-4.674.545-5.424 2.39-.936 2.303.795 5.181 3.865 6.428 1.313.533 2.646.661 3.829.479-.607-.088-1.22-.231-1.829-.479z"/>
  <ellipse cx="38.973" cy="100.896" fill="#ccc" rx="3.936" ry="2.951" transform="rotate(-134.494 38.97312312 100.89852423)"/>
  <path fill="#b3b3b3" d="M38.051 103.457c-1.521-1.549-1.813-3.732-.65-4.875.664-.655 1.664-.811 2.683-.547-1.376-.845-2.955-.892-3.887.023-1.163 1.145-.871 3.326.651 4.876.651.663 1.422 1.089 2.182 1.285-.344-.207-.676-.453-.979-.762z"/>
  <ellipse cx="36.917" cy="111.864" fill="#ccc" rx="5.968" ry="4.476" transform="matrix(-.9624 -.2718 .2718 -.9624 42.0374 229.5513)"/>
  <path fill="#b3b3b3" d="M37.711 115.956c-3.169-.896-5.195-3.552-4.521-5.931.382-1.362 1.582-2.318 3.121-2.736-2.447-.078-4.562 1.05-5.101 2.956-.673 2.378 1.354 5.035 4.525 5.93 1.356.384 2.688.363 3.839.054-.607-.02-1.232-.094-1.863-.273z"/>
  <path fill="#ffd464" d="M27.953 21c0 4-1 5-5 5 4 0 5 1 5 5 0-4 1-5 5-5-4 0-5-1-5-5zm-13 29c0 4-1 5-5 5 4 0 5 1 5 5 0-4 1-5 5-5-4 0-5-1-5-5zm14 18c0 4-1 5-5 5 4 0 5 1 5 5 0-4 1-5 5-5-4 0-5-1-5-5zm53 33c0 4-1 5-5 5 4 0 5 1 5 5 0-4 1-5 5-5-4 0-5-1-5-5zm36-23c0 4-1 5-5 5 4 0 5 1 5 5 0-4 1-5 5-5-4 0-5-1-5-5zm-3-35c0 4-1 5-5 5 4 0 5 1 5 5 0-4 1-5 5-5-4 0-5-1-5-5zm-50-36c0 4-1 5-5 5 4 0 5 1 5 5 0-4 1-5 5-5-4 0-5-1-5-5zm-17 21c0 4-1 5-5 5 4 0 5 1 5 5 0-4 1-5 5-5-4 0-5-1-5-5z"/>
</svg>